# xmcd CD database file
#
# Track frame offsets:
#	150
#	13899
#	23746
#	38087
#	50831
#	62433
#	73431
#	86191
#	99041
#	111519
#	123659
#	134812
#	146995
#	159656
#	172362
#	183133
#	195390
#	208143
#	222282
#	234286
#	247854
#	260865
#	274192
#	286120
#	299106
#	310724
#	324225
#	337557
#
# Disc length: 4702 seconds
#
# Revision: 0
# Processed by: cddbd v1.5.2PL0 Copyright (c) Steve Scherf et al.
# Submitted via: CDex 1.40PlusFr
#
DISCID=b7125c1c
DTITLE=Lightnin' Hopkins - Texas Blues Giant Volume 1
DYEAR=2010
DGENRE=Blues
TTITLE0=Katie Mae Blues
TTITLE1=Feel So Bad
TTITLE2=That Mean Old Twister
TTITLE3=Rocky Mountain Blues
TTITLE4=Play With Your Poodle
TTITLE5=Short Haired Woman
TTITLE6=Fast Made Rambler
TTITLE7=Picture On The Wall
TTITLE8=Baby Child
TTITLE9=Someday Baby
TTITLE10=Abilene
TTITLE11=Shotgun Blues
TTITLE12=Shining Moon
TTITLE13=No Mail Blues
TTITLE14=Unsuccessful Blues
TTITLE15=Jail House Blues
TTITLE16=Automobile Blues
TTITLE17=Untrue Blues
TTITLE18=Bad Luck and Trouble
TTITLE19=Last Affair
TTITLE20=One Kind Favor
TTITLE21=Another Fool In Town
TTITLE22=Black Cat
TTITLE23=Santa Fe
TTITLE24=Someday Baby
TTITLE25=Black Cat Bone
TTITLE26=Dark And Cloudy
TTITLE27=Disagreable
EXTD=YEAR: 2010 ID3G: 0
EXTT0=
EXTT1=
EXTT2=
EXTT3=
EXTT4=
EXTT5=
EXTT6=
EXTT7=
EXTT8=
EXTT9=
EXTT10=
EXTT11=
EXTT12=
EXTT13=
EXTT14=
EXTT15=
EXTT16=
EXTT17=
EXTT18=
EXTT19=
EXTT20=
EXTT21=
EXTT22=
EXTT23=
EXTT24=
EXTT25=
EXTT26=
EXTT27=
PLAYORDER=
